<svg height="454" viewBox="4 0 555 337" width="749" xmlns="http://www.w3.org/2000/svg" xmlns:xlink="http://www.w3.org/1999/xlink"><defs><style>*{stroke-linecap:butt;stroke-linejoin:round}</style></defs><g id="figure_1"><path d="M0 343.46h561.984V0H0z" style="fill:#fff" id="patch_1"/><g id="axes_1"><path clip-path="url(#p7963c7b518)" d="M7.942 306.673h546.842v28.865H7.942v-28.865z" style="fill:#e7ffe7" id="patch_2"/><path clip-path="url(#p7963c7b518)" d="M7.942 277.808h546.842v28.865H7.942v-28.865z" style="fill:#ffffe0" id="patch_3"/><path clip-path="url(#p7963c7b518)" d="M7.942 220.078h546.842v28.865H7.942v-28.865z" style="fill:#ebefff" id="patch_4"/><path clip-path="url(#p7963c7b518)" d="M7.942 191.213h546.842v28.865H7.942v-28.865z" style="fill:#ffefff" id="patch_5"/><path clip-path="url(#p7963c7b518)" d="M7.942 162.349h546.842v28.864H7.942V162.35z" style="fill:#ffffe0" id="patch_6"/><path clip-path="url(#p7963c7b518)" d="M7.942 86.578h546.842v28.865H7.942V86.578z" style="fill:#ebefff" id="patch_7"/><path clip-path="url(#p7963c7b518)" d="M7.942 28.849h546.842v28.864H7.942V28.85z" style="fill:#ffefff" id="patch_8"/><g transform="matrix(.13 0 0 -.13 13.878 325.435)" id="text_1"><defs><path d="M4316 2247q0-681-266-1192t-754-783Q2809 0 2172 0H525v4403h1456q1119 0 1727-561t608-1595zm-600 0q0 819-449 1248-448 430-1298 430h-847V478h981q485 0 852 212 367 213 564 613t197 944z" id="LS-44" transform="scale(.01563)"/><path d="M863 1572q0-581 240-897 241-316 703-316 366 0 586 147 221 147 299 372l493-140Q2881-63 1806-63q-750 0-1142 447T272 1713q0 837 392 1284t1120 447q1491 0 1491-1797v-75H863zm1831 431q-47 535-272 780t-647 245q-409 0-648-274-239-273-258-751h1825z" id="LS-65" transform="scale(.01563)"/><path d="M1916 0h-666L22 3381h600l744-2200q40-125 215-740l110 365 122 369 768 2206h597L1916 0z" id="LS-76" transform="scale(.01563)"/><path d="M431 0v4638h563V0H431z" id="LS-6c" transform="scale(.01563)"/><path d="M3291 1694q0-888-391-1323Q2509-63 1766-63q-741 0-1119 452T269 1694q0 1750 1515 1750 775 0 1141-427 366-426 366-1323zm-591 0q0 700-208 1017t-698 317q-494 0-715-324-220-323-220-1010 0-669 217-1005 218-336 683-336 507 0 724 325t217 1016z" id="LS-6f" transform="scale(.01563)"/><path d="M3291 1706Q3291-63 2047-63q-781 0-1050 588h-16q13-25 13-531v-1322H431v4019q0 522-18 690h543q3-12 9-89 7-76 15-236 8-159 8-218h12q150 312 397 457 247 146 650 146 625 0 934-419 310-419 310-1316zm-591-12q0 706-191 1009-190 303-606 303-334 0-523-141-189-140-288-439-98-298-98-776 0-666 212-982 213-315 691-315 419 0 611 308t192 1033z" id="LS-70" transform="scale(.01563)"/><path d="M981 3381V1238q0-335 66-520 66-184 209-265 144-81 422-81 406 0 640 278 235 278 235 772v1959h563V722q0-591 18-722h-531q-3 16-6 84-3 69-8 158t-11 336h-9q-194-350-449-496-254-145-632-145-557 0-815 277-257 277-257 914v2253h565z" id="LS-75" transform="scale(.01563)"/><path d="M1731 25q-278-75-568-75-675 0-675 766v2256H97v409h412l166 757h375v-757h625v-409h-625V838q0-244 79-343 80-98 277-98 113 0 325 44V25z" id="LS-74" transform="scale(.01563)"/><path d="M584 0v684h610V0H584z" id="LS-2e" transform="scale(.01563)"/><path d="M1294-63q-510 0-766 269T272 944q0 525 345 806 346 281 1114 300l760 13v184q0 412-175 590-175 179-550 179-378 0-550-129-172-128-207-409l-587 53q144 913 1356 913 638 0 959-293 322-292 322-845V850q0-250 66-377 66-126 250-126 81 0 184 22V19q-212-50-434-50-312 0-455 164-142 164-161 514h-18q-216-388-502-549T1294-63zm128 422q309 0 550 141t380 386q139 245 139 505v278l-616-13q-397-6-602-81-204-75-314-231-109-156-109-410 0-275 148-425 149-150 424-150z" id="LS-61" transform="scale(.01563)"/><path d="M428 4100v538h563v-538H428zM428 0v3381h563V0H428z" id="LS-69" transform="scale(.01563)"/><path d="M2578 0v2144q0 334-66 518-65 185-209 266t-422 81q-406 0-641-278-234-278-234-772V0H444v2659q0 591-19 722h531q3-15 6-84 4-69 8-158 5-89 11-336h10q193 350 448 495 255 146 633 146 556 0 814-277 258-276 258-914V0h-566z" id="LS-6e" transform="scale(.01563)"/><path d="M2566 544q-157-325-415-466-257-141-638-141-641 0-943 431-301 432-301 1307 0 1769 1244 1769 384 0 640-141 256-140 413-447h6l-6 378v1404h562V697q0-528 19-697h-538q-9 50-20 231-11 182-11 313h-12zM859 1694q0-710 187-1016 188-306 610-306 478 0 694 331t216 1028q0 672-216 984-216 313-687 313-425 0-615-314-189-314-189-1020z" id="LS-64" transform="scale(.01563)"/><path d="M597-1328q-231 0-388 34v422q119-19 263-19 525 0 831 772l53 135L16 3381h600l712-1868q16-44 38-105t140-408q119-347 128-387l219 615 741 2153h594L1888 0q-210-541-391-805t-402-393q-220-130-498-130z" id="LS-79" transform="scale(.01563)"/><path d="M3381 0 1025 3750l16-303 15-522V0H525v4403h694L3600 628q-37 613-37 888v2887h537V0h-719z" id="LS-4e" transform="scale(.01563)"/><path d="M4269 0v2938q0 487 28 937-153-559-275-875L2884 0h-418L1313 3000l-175 531-104 344 10-347 12-590V0H525v4403h784l1172-3053q63-184 120-395 58-211 77-305 25 125 105 379 80 255 108 321l1150 3053h765V0h-537z" id="LS-4d" transform="scale(.01563)"/><path d="M2475 3981q-731 0-1138-470-406-470-406-1289 0-809 423-1302 424-492 1146-492 925 0 1391 916l487-244q-272-569-764-866T2472-63q-666 0-1152 277t-741 791q-254 514-254 1217 0 1053 569 1650t1575 597q703 0 1175-275t694-816l-566-187q-153 384-492 587t-805 203z" id="LS-43" transform="scale(.01563)"/><path d="M2250 3916V0h-594v3916H144v487h3619v-487H2250z" id="LS-54" transform="scale(.01563)"/><path d="M3975 1216q0-610-477-945Q3022-63 2156-63 547-63 291 1056l578 116q100-397 425-583t884-186q578 0 892 198 314 199 314 583 0 216-98 350-98 135-277 222-178 88-425 147-246 60-546 128-522 116-793 231-270 116-426 258-156 143-239 333-83 191-83 438 0 565 433 871 433 307 1239 307 750 0 1147-230t556-783l-588-103q-96 350-368 508t-753 158q-529 0-807-175t-278-522q0-203 108-336t311-225q203-92 809-227 203-46 405-95 202-48 386-116 184-67 345-158 161-90 280-221t186-310q67-178 67-418z" id="LS-53" transform="scale(.01563)"/><path d="M322 0v397q159 366 389 645 230 280 483 506 253 227 501 421 249 194 449 387 200 194 323 406 124 213 124 482 0 362-213 562-212 200-590 200-360 0-593-195-232-195-273-548l-575 53q62 528 448 840 386 313 993 313 665 0 1023-314t358-892q0-257-118-510-117-253-348-506t-884-784q-360-294-573-530-212-236-305-455h2297V0H322z" id="LS-32" transform="scale(.01563)"/></defs><use xlink:href="#LS-44"/><use x="72.217" xlink:href="#LS-65"/><use x="127.832" xlink:href="#LS-76"/><use x="177.832" xlink:href="#LS-65"/><use x="233.447" xlink:href="#LS-6c"/><use x="255.664" xlink:href="#LS-6f"/><use x="311.279" xlink:href="#LS-70"/><use x="366.895" xlink:href="#LS-20"/><use x="394.678" xlink:href="#LS-75"/><use x="450.293" xlink:href="#LS-74"/><use x="478.076" xlink:href="#LS-74"/><use x="505.859" xlink:href="#LS-74"/><use x="533.643" xlink:href="#LS-2e"/><use x="561.426" xlink:href="#LS-61"/><use x="617.041" xlink:href="#LS-69"/><use x="639.258" xlink:href="#LS-20"/><use x="667.041" xlink:href="#LS-61"/><use x="722.656" xlink:href="#LS-6e"/><use x="778.271" xlink:href="#LS-64"/><use x="833.887" xlink:href="#LS-20"/><use x="861.67" xlink:href="#LS-64"/><use x="917.285" xlink:href="#LS-65"/><use x="972.9" xlink:href="#LS-70"/><use x="1028.516" xlink:href="#LS-6c"/><use x="1050.732" xlink:href="#LS-6f"/><use x="1106.348" xlink:href="#LS-79"/><use x="1156.348" xlink:href="#LS-20"/><use x="1184.131" xlink:href="#LS-4e"/><use x="1256.348" xlink:href="#LS-4d"/><use x="1339.648" xlink:href="#LS-43"/><use x="1411.865" xlink:href="#LS-54"/><use x="1472.949" xlink:href="#LS-53"/><use x="1539.648" xlink:href="#LS-32"/></g><g transform="matrix(.13 0 0 -.13 13.878 296.57)" id="text_2"><defs><path d="M525 0v4403h3341v-487H1122V2503h2556v-481H1122V488h2872V0H525z" id="LS-45" transform="scale(.01563)"/><path d="M2969 934q0-478-361-738Q2247-63 1597-63q-631 0-974 208-342 208-445 649l497 97q72-272 297-399 225-126 625-126 428 0 626 131 199 131 199 394 0 200-138 325-137 125-443 206l-403 106q-485 125-690 245-204 121-320 293-115 172-115 422 0 462 329 704 330 242 961 242 560 0 889-197 330-196 417-631l-506-62q-47 225-252 345-204 120-548 120-381 0-563-116-181-115-181-349 0-144 75-238 75-93 222-159t619-181q447-113 644-208t311-211q114-116 176-268 63-151 63-345z" id="LS-73" transform="scale(.01563)"/><path d="M488 0v478h1121v3388l-993-710v532l1040 715h519V478h1072V0H488z" id="LS-31" transform="scale(.01563)"/><path d="M1203 684V159q0-331-60-553-59-222-184-425H575Q869-394 869 0H594v684h609z" id="LS-2c" transform="scale(.01563)"/></defs><use xlink:href="#LS-45"/><use x="66.699" xlink:href="#LS-76"/><use x="116.699" xlink:href="#LS-61"/><use x="172.314" xlink:href="#LS-6c"/><use x="194.531" xlink:href="#LS-75"/><use x="250.146" xlink:href="#LS-61"/><use x="305.762" xlink:href="#LS-74"/><use x="333.545" xlink:href="#LS-65"/><use x="389.16" xlink:href="#LS-20"/><use x="416.943" xlink:href="#LS-4e"/><use x="489.16" xlink:href="#LS-4d"/><use x="572.461" xlink:href="#LS-43"/><use x="644.678" xlink:href="#LS-54"/><use x="705.762" xlink:href="#LS-53"/><use x="772.461" xlink:href="#LS-32"/><use x="828.076" xlink:href="#LS-20"/><use x="855.859" xlink:href="#LS-76"/><use x="905.859" xlink:href="#LS-73"/><use x="955.859" xlink:href="#LS-20"/><use x="983.643" xlink:href="#LS-4e"/><use x="1055.859" xlink:href="#LS-4d"/><use x="1139.16" xlink:href="#LS-43"/><use x="1211.377" xlink:href="#LS-54"/><use x="1272.461" xlink:href="#LS-53"/><use x="1339.16" xlink:href="#LS-31"/><use x="1394.775" xlink:href="#LS-2c"/><use x="1422.559" xlink:href="#LS-20"/><use x="1450.342" xlink:href="#LS-4d"/><use x="1533.643" xlink:href="#LS-43"/><use x="1605.859" xlink:href="#LS-54"/><use x="1666.943" xlink:href="#LS-53"/></g><g transform="matrix(.13 0 0 -.13 13.878 267.705)" id="text_3"><defs><path d="M3109 0 1191 3391q56-494 56-794V0H428v4403h1053L3428 984q-56 472-56 860v2559h819V0H3109z" id="LS-Bold-4e" transform="scale(.01563)"/><path d="M4084 0v2669q0 90 2 181t30 778q-222-840-328-1172L2994 0h-656l-794 2456-335 1172q38-725 38-959V0H428v4403h1235l787-2462 69-238 150-590 197 706 809 2584h1228V0h-819z" id="LS-Bold-4d" transform="scale(.01563)"/><path d="M2484 663q835 0 1160 837l803-303q-259-638-761-949T2484-63Q1422-63 842 539q-579 602-579 1683 0 1084 559 1665 559 582 1622 582 775 0 1262-311 488-311 685-914l-813-222q-103 331-405 526-301 196-710 196-625 0-949-388-323-387-323-1134 0-759 332-1159 333-400 961-400z" id="LS-Bold-43" transform="scale(.01563)"/><path d="M2416 3691V0h-922v3691H72v712h3769v-712H2416z" id="LS-Bold-54" transform="scale(.01563)"/><path d="M4019 1269q0-647-480-990Q3059-63 2131-63q-847 0-1328 300-481 301-619 910l891 147q91-350 353-508 263-158 728-158 966 0 966 588 0 187-111 309t-313 203q-201 81-773 197-494 116-688 186-193 70-350 165-156 96-265 230-109 135-170 316t-61 416q0 596 448 913 449 318 1305 318 819 0 1229-257 411-256 530-846l-894-122q-68 284-279 428t-605 144q-837 0-837-525 0-172 89-282 89-109 264-186 175-76 709-192 634-134 907-248 274-114 433-266 160-151 244-362 85-211 85-486z" id="LS-Bold-53" transform="scale(.01563)"/><path d="M222 0v609q172 379 489 738t798 750q463 375 649 618 186 244 186 479 0 575-578 575-282 0-430-152-148-151-192-454l-885 50q75 612 458 934t1042 322q713 0 1094-325t381-913q0-309-122-559-121-250-312-461t-424-396q-232-184-451-359t-399-353q-179-178-267-381h2044V0H222z" id="LS-Bold-32" transform="scale(.01563)"/></defs><use xlink:href="#LS-Bold-4e"/><use x="72.217" xlink:href="#LS-Bold-4d"/><use x="155.518" xlink:href="#LS-Bold-43"/><use x="227.734" xlink:href="#LS-Bold-54"/><use x="288.818" xlink:href="#LS-Bold-53"/><use x="355.518" xlink:href="#LS-Bold-32"/></g><g transform="matrix(.13 0 0 -.13 74.72 267.705)" id="text_4"><defs><path d="M584 2734v647h610v-647H584zM584 0v647h610V0H584z" id="LS-3a" transform="scale(.01563)"/><path d="M313 2675v463h3109v-463H313zm0-1600v463h3109v-463H313z" id="LS-3d" transform="scale(.01563)"/><path d="M2097 1900V563h-459v1337H313v456h1325v1338h459V2356h1325v-456H2097z" id="LS-2b" transform="scale(.01563)"/><path d="M3931 3078q0-625-408-994-407-368-1107-368H1122V0H525v4403h1853q741 0 1147-347t406-978zm-600-6q0 853-1025 853H1122V2188h1209q1000 0 1000 884z" id="LS-50" transform="scale(.01563)"/><path d="M2444 0h-619L28 4403h628l1219-3100 263-778 262 778 1213 3100h628L2444 0z" id="LS-56" transform="scale(.01563)"/><path d="M444 0v2594q0 356-19 787h531q25-575 25-690h13q134 434 309 593 175 160 494 160 112 0 228-31v-516q-112 31-300 31-350 0-535-302-184-301-184-863V0H444z" id="LS-72" transform="scale(.01563)"/><path d="M1713-1328q-554 0-882 217T409-494l566 81q56-234 248-360 193-127 505-127 841 0 841 984v544h-6q-160-325-438-489T1475-25q-622 0-914 412-292 413-292 1297 0 897 314 1323 314 427 955 427 359 0 623-164t408-467h6q0 94 12 325 13 231 26 253h534q-19-168-19-700V97q0-1425-1415-1425zm856 3019q0 412-113 710-112 299-317 457t-464 158q-431 0-628-313-197-312-197-1012 0-694 184-997 185-303 632-303 265 0 471 156 207 156 319 448 113 293 113 696z" id="LS-67" transform="scale(.01563)"/><path d="M284 1450v500h1563v-500H284z" id="LS-2d" transform="scale(.01563)"/><path d="M2400 0v2144q0 490-135 677-134 188-484 188-359 0-569-275-209-275-209-775V0H444v2659q0 591-19 722h531q3-15 6-84 4-69 8-158 5-89 11-336h10q181 360 415 500 235 141 572 141 385 0 608-153t311-488h9q175 341 423 491 249 150 602 150 513 0 745-278 233-278 233-913V0h-556v2144q0 490-135 677-134 188-484 188-368 0-573-273t-205-777V0h-556z" id="LS-6d" transform="scale(.01563)"/><path d="M859 1706q0-675 212-1000 213-325 642-325 300 0 501 162 202 163 249 501l568-38q-65-487-415-778T1728-63q-709 0-1083 448-373 449-373 1309 0 853 375 1301 375 449 1075 449 519 0 861-269t430-741l-579-43q-43 281-222 446-178 166-506 166-447 0-647-297T859 1706z" id="LS-63" transform="scale(.01563)"/></defs><use xlink:href="#LS-3a"/><use x="27.783" xlink:href="#LS-3d"/><use x="86.182" xlink:href="#LS-20"/><use x="113.965" xlink:href="#LS-4d"/><use x="197.266" xlink:href="#LS-43"/><use x="269.482" xlink:href="#LS-54"/><use x="330.566" xlink:href="#LS-53"/><use x="397.266" xlink:href="#LS-20"/><use x="425.049" xlink:href="#LS-2b"/><use x="483.447" xlink:href="#LS-20"/><use x="511.23" xlink:href="#LS-50"/><use x="577.93" xlink:href="#LS-56"/><use x="644.629" xlink:href="#LS-4e"/><use x="716.846" xlink:href="#LS-20"/><use x="744.629" xlink:href="#LS-72"/><use x="777.93" xlink:href="#LS-65"/><use x="833.545" xlink:href="#LS-74"/><use x="861.328" xlink:href="#LS-72"/><use x="894.629" xlink:href="#LS-61"/><use x="950.244" xlink:href="#LS-69"/><use x="972.461" xlink:href="#LS-6e"/><use x="1028.076" xlink:href="#LS-65"/><use x="1083.691" xlink:href="#LS-64"/><use x="1139.307" xlink:href="#LS-20"/><use x="1167.09" xlink:href="#LS-6f"/><use x="1222.705" xlink:href="#LS-6e"/><use x="1278.32" xlink:href="#LS-20"/><use x="1306.104" xlink:href="#LS-73"/><use x="1356.104" xlink:href="#LS-74"/><use x="1383.887" xlink:href="#LS-61"/><use x="1439.502" xlink:href="#LS-67"/><use x="1495.117" xlink:href="#LS-65"/><use x="1550.732" xlink:href="#LS-32"/><use x="1606.348" xlink:href="#LS-2d"/><use x="1639.648" xlink:href="#LS-6e"/><use x="1695.264" xlink:href="#LS-6d"/><use x="1778.564" xlink:href="#LS-63"/><use x="1828.564" xlink:href="#LS-74"/><use x="1856.348" xlink:href="#LS-73"/><use x="1906.348" xlink:href="#LS-20"/><use x="1934.131" xlink:href="#LS-64"/><use x="1989.746" xlink:href="#LS-61"/><use x="2045.361" xlink:href="#LS-74"/><use x="2073.145" xlink:href="#LS-61"/><use x="2128.76" xlink:href="#LS-73"/><use x="2178.76" xlink:href="#LS-65"/><use x="2234.375" xlink:href="#LS-74"/></g><g transform="matrix(.13 0 0 -.13 13.878 238.84)" id="text_5"><defs><path d="M3638 0 2494 1828H1122V0H525v4403h2072q744 0 1148-333 405-332 405-926 0-491-286-826-286-334-789-421L4325 0h-687zm-88 3138q0 384-261 585-261 202-751 202H1122V2300h1441q471 0 729 220 258 221 258 618z" id="LS-52" transform="scale(.01563)"/></defs><use xlink:href="#LS-52"/><use x="72.217" xlink:href="#LS-65"/><use x="127.832" xlink:href="#LS-74"/><use x="155.615" xlink:href="#LS-72"/><use x="188.916" xlink:href="#LS-61"/><use x="244.531" xlink:href="#LS-69"/><use x="266.748" xlink:href="#LS-6e"/><use x="322.363" xlink:href="#LS-20"/><use x="350.146" xlink:href="#LS-50"/><use x="416.846" xlink:href="#LS-56"/><use x="483.545" xlink:href="#LS-4e"/><use x="555.762" xlink:href="#LS-20"/><use x="583.545" xlink:href="#LS-6f"/><use x="639.16" xlink:href="#LS-6e"/><use x="694.775" xlink:href="#LS-20"/><use x="722.559" xlink:href="#LS-73"/><use x="772.559" xlink:href="#LS-74"/><use x="800.342" xlink:href="#LS-61"/><use x="855.957" xlink:href="#LS-67"/><use x="911.572" xlink:href="#LS-65"/><use x="967.188" xlink:href="#LS-32"/><use x="1022.803" xlink:href="#LS-2d"/><use x="1056.104" xlink:href="#LS-6e"/><use x="1111.719" xlink:href="#LS-6d"/><use x="1195.02" xlink:href="#LS-63"/><use x="1245.02" xlink:href="#LS-74"/><use x="1272.803" xlink:href="#LS-73"/><use x="1322.803" xlink:href="#LS-20"/><use x="1350.586" xlink:href="#LS-64"/><use x="1406.201" xlink:href="#LS-61"/><use x="1461.816" xlink:href="#LS-74"/><use x="1489.6" xlink:href="#LS-61"/><use x="1545.215" xlink:href="#LS-73"/><use x="1595.215" xlink:href="#LS-65"/><use x="1650.83" xlink:href="#LS-74"/></g><g transform="matrix(.13 0 0 -.13 13.878 209.976)" id="text_6"><defs><path d="M322 2222q0 1072 575 1659 575 588 1616 588 731 0 1187-247t703-791l-569-168q-187 375-517 546-329 172-820 172-763 0-1166-461T928 2222q0-834 428-1317t1185-483q431 0 804 131 374 131 605 356v794H2634v500h1866V684q-350-356-858-552Q3134-63 2541-63q-691 0-1191 275-500 276-764 793T322 2222z" id="LS-47" transform="scale(.01563)"/><path d="M1128 2972V0H566v2972H91v409h475v382q0 462 203 665t622 203q234 0 397-37v-428q-141 25-250 25-216 0-313-110-97-109-97-397v-303h660v-409h-660z" id="LS-66" transform="scale(.01563)"/><path d="M3669 0h-653l-591 2391-112 528q-29-141-88-405T1588 0H938L-9 3381h556l572-2297q22-75 134-618l53 231 707 2684h603l590-2322 144-593 97 434 641 2481h550L3669 0z" id="LS-77" transform="scale(.01563)"/><path d="M991 2803q181 331 435 486 255 155 646 155 550 0 811-274 261-273 261-917V0h-566v2144q0 356-66 529-65 174-215 255t-416 81q-397 0-636-275t-239-740V0H444v4638h562V3431q0-190-11-394-11-203-14-234h10z" id="LS-68" transform="scale(.01563)"/><path d="M3309 2203q0-1103-389-1685Q2531-63 1772-63T631 515q-381 579-381 1688 0 1135 370 1700 371 566 1171 566 778 0 1148-572t370-1694zm-571 0q0 953-221 1381-220 429-726 429-519 0-746-422-226-422-226-1388 0-937 229-1372 230-434 730-434 497 0 728 443 232 444 232 1363z" id="LS-30" transform="scale(.01563)"/><path d="M2550 0 1406 1544l-412-341V0H431v4638h563V1741l1484 1640h660L1766 1928 3209 0h-659z" id="LS-6b" transform="scale(.01563)"/></defs><use xlink:href="#LS-47"/><use x="77.783" xlink:href="#LS-65"/><use x="133.398" xlink:href="#LS-6e"/><use x="189.014" xlink:href="#LS-65"/><use x="244.629" xlink:href="#LS-72"/><use x="277.93" xlink:href="#LS-61"/><use x="333.545" xlink:href="#LS-74"/><use x="361.328" xlink:href="#LS-65"/><use x="416.943" xlink:href="#LS-20"/><use x="444.727" xlink:href="#LS-73"/><use x="494.727" xlink:href="#LS-65"/><use x="550.342" xlink:href="#LS-6c"/><use x="572.559" xlink:href="#LS-66"/><use x="600.342" xlink:href="#LS-2d"/><use x="633.643" xlink:href="#LS-70"/><use x="689.258" xlink:href="#LS-6c"/><use x="711.475" xlink:href="#LS-61"/><use x="767.09" xlink:href="#LS-79"/><use x="817.09" xlink:href="#LS-20"/><use x="844.873" xlink:href="#LS-64"/><use x="900.488" xlink:href="#LS-61"/><use x="956.104" xlink:href="#LS-74"/><use x="983.887" xlink:href="#LS-61"/><use x="1039.502" xlink:href="#LS-73"/><use x="1089.502" xlink:href="#LS-65"/><use x="1145.117" xlink:href="#LS-74"/><use x="1172.9" xlink:href="#LS-20"/><use x="1200.684" xlink:href="#LS-75"/><use x="1256.299" xlink:href="#LS-73"/><use x="1306.299" xlink:href="#LS-69"/><use x="1328.516" xlink:href="#LS-6e"/><use x="1384.131" xlink:href="#LS-67"/><use x="1439.746" xlink:href="#LS-20"/><use x="1467.529" xlink:href="#LS-4e"/><use x="1539.746" xlink:href="#LS-4d"/><use x="1623.047" xlink:href="#LS-43"/><use x="1695.264" xlink:href="#LS-54"/><use x="1756.348" xlink:href="#LS-53"/><use x="1823.047" xlink:href="#LS-31"/><use x="1878.662" xlink:href="#LS-20"/><use x="1906.445" xlink:href="#LS-77"/><use x="1978.662" xlink:href="#LS-69"/><use x="2000.879" xlink:href="#LS-74"/><use x="2028.662" xlink:href="#LS-68"/><use x="2084.277" xlink:href="#LS-20"/><use x="2112.061" xlink:href="#LS-31"/><use x="2167.676" xlink:href="#LS-30"/><use x="2223.291" xlink:href="#LS-6b"/><use x="2273.291" xlink:href="#LS-20"/><use x="2301.074" xlink:href="#LS-73"/><use x="2351.074" xlink:href="#LS-69"/><use x="2373.291" xlink:href="#LS-6d"/><use x="2456.592" xlink:href="#LS-75"/><use x="2512.207" xlink:href="#LS-6c"/><use x="2534.424" xlink:href="#LS-61"/><use x="2590.039" xlink:href="#LS-74"/><use x="2617.822" xlink:href="#LS-69"/><use x="2640.039" xlink:href="#LS-6f"/><use x="2695.654" xlink:href="#LS-6e"/><use x="2751.27" xlink:href="#LS-73"/><use x="2801.27" xlink:href="#LS-20"/><use x="2829.053" xlink:href="#LS-70"/><use x="2884.668" xlink:href="#LS-65"/><use x="2940.283" xlink:href="#LS-72"/><use x="2973.584" xlink:href="#LS-20"/><use x="3001.367" xlink:href="#LS-70"/><use x="3056.982" xlink:href="#LS-6f"/><use x="3112.598" xlink:href="#LS-73"/><use x="3162.598" xlink:href="#LS-69"/><use x="3184.814" xlink:href="#LS-74"/><use x="3212.598" xlink:href="#LS-69"/><use x="3234.814" xlink:href="#LS-6f"/><use x="3290.43" xlink:href="#LS-6e"/></g><g transform="matrix(.13 0 0 -.13 463.599 209.976)" id="text_7"><defs><path d="M456-1328v5966h1272v-404h-728V-925h728v-403H456z" id="LS-5b" transform="scale(.01563)"/><path d="M50-1328v403h728v5159H50v404h1272v-5966H50z" id="LS-5d" transform="scale(.01563)"/></defs><use xlink:href="#LS-5b"/><use x="27.783" xlink:href="#LS-73"/><use x="77.783" xlink:href="#LS-74"/><use x="105.566" xlink:href="#LS-61"/><use x="161.182" xlink:href="#LS-67"/><use x="216.797" xlink:href="#LS-65"/><use x="272.412" xlink:href="#LS-32"/><use x="328.027" xlink:href="#LS-2d"/><use x="361.328" xlink:href="#LS-6e"/><use x="416.943" xlink:href="#LS-6d"/><use x="500.244" xlink:href="#LS-63"/><use x="550.244" xlink:href="#LS-74"/><use x="578.027" xlink:href="#LS-73"/><use x="628.027" xlink:href="#LS-5d"/></g><g transform="matrix(.13 0 0 -.13 13.878 181.11)" id="text_8"><use xlink:href="#LS-45"/><use x="66.699" xlink:href="#LS-76"/><use x="116.699" xlink:href="#LS-61"/><use x="172.314" xlink:href="#LS-6c"/><use x="194.531" xlink:href="#LS-75"/><use x="250.146" xlink:href="#LS-61"/><use x="305.762" xlink:href="#LS-74"/><use x="333.545" xlink:href="#LS-65"/><use x="389.16" xlink:href="#LS-20"/><use x="416.943" xlink:href="#LS-4e"/><use x="489.16" xlink:href="#LS-4d"/><use x="572.461" xlink:href="#LS-43"/><use x="644.678" xlink:href="#LS-54"/><use x="705.762" xlink:href="#LS-53"/><use x="772.461" xlink:href="#LS-31"/><use x="828.076" xlink:href="#LS-20"/><use x="855.859" xlink:href="#LS-76"/><use x="905.859" xlink:href="#LS-73"/><use x="955.859" xlink:href="#LS-20"/><use x="983.643" xlink:href="#LS-4d"/><use x="1066.943" xlink:href="#LS-43"/><use x="1139.16" xlink:href="#LS-54"/><use x="1200.244" xlink:href="#LS-53"/></g><g transform="matrix(.13 0 0 -.13 13.878 152.246)" id="text_9"><defs><path d="M403 0v653h1091v3003L438 2997v691l1103 715h831V653h1009V0H403z" id="LS-Bold-31" transform="scale(.01563)"/></defs><use xlink:href="#LS-Bold-4e"/><use x="72.217" xlink:href="#LS-Bold-4d"/><use x="155.518" xlink:href="#LS-Bold-43"/><use x="227.734" xlink:href="#LS-Bold-54"/><use x="288.818" xlink:href="#LS-Bold-53"/><use x="355.518" xlink:href="#LS-Bold-31"/></g><g transform="matrix(.13 0 0 -.13 74.72 152.246)" id="text_10"><use xlink:href="#LS-3a"/><use x="27.783" xlink:href="#LS-3d"/><use x="86.182" xlink:href="#LS-20"/><use x="113.965" xlink:href="#LS-4d"/><use x="197.266" xlink:href="#LS-43"/><use x="269.482" xlink:href="#LS-54"/><use x="330.566" xlink:href="#LS-53"/><use x="397.266" xlink:href="#LS-20"/><use x="425.049" xlink:href="#LS-2b"/><use x="483.447" xlink:href="#LS-20"/><use x="511.23" xlink:href="#LS-50"/><use x="577.93" xlink:href="#LS-56"/><use x="644.629" xlink:href="#LS-4e"/><use x="716.846" xlink:href="#LS-20"/><use x="744.629" xlink:href="#LS-74"/><use x="772.412" xlink:href="#LS-72"/><use x="805.713" xlink:href="#LS-61"/><use x="861.328" xlink:href="#LS-69"/><use x="883.545" xlink:href="#LS-6e"/><use x="939.16" xlink:href="#LS-65"/><use x="994.775" xlink:href="#LS-64"/><use x="1050.391" xlink:href="#LS-20"/><use x="1078.174" xlink:href="#LS-6f"/><use x="1133.789" xlink:href="#LS-6e"/><use x="1189.404" xlink:href="#LS-20"/><use x="1217.188" xlink:href="#LS-73"/><use x="1267.188" xlink:href="#LS-74"/><use x="1294.971" xlink:href="#LS-61"/><use x="1350.586" xlink:href="#LS-67"/><use x="1406.201" xlink:href="#LS-65"/><use x="1461.816" xlink:href="#LS-31"/><use x="1517.432" xlink:href="#LS-2d"/><use x="1550.732" xlink:href="#LS-6d"/><use x="1634.033" xlink:href="#LS-63"/><use x="1684.033" xlink:href="#LS-74"/><use x="1711.816" xlink:href="#LS-73"/><use x="1761.816" xlink:href="#LS-20"/><use x="1789.6" xlink:href="#LS-64"/><use x="1845.215" xlink:href="#LS-61"/><use x="1900.83" xlink:href="#LS-74"/><use x="1928.613" xlink:href="#LS-61"/><use x="1984.229" xlink:href="#LS-73"/><use x="2034.229" xlink:href="#LS-65"/><use x="2089.844" xlink:href="#LS-74"/></g><g transform="matrix(.13 0 0 -.13 13.878 134.205)" id="text_11"><use xlink:href="#LS-Bold-4e"/><use x="72.217" xlink:href="#LS-Bold-4d"/><use x="155.518" xlink:href="#LS-Bold-43"/><use x="227.734" xlink:href="#LS-Bold-54"/><use x="288.818" xlink:href="#LS-Bold-53"/></g><g transform="matrix(.13 0 0 -.13 74.72 134.205)" id="text_12"><defs><path d="M397 1663q0 903 283 1621 283 719 870 1354h544q-585-650-858-1382-273-731-273-1600 0-865 270-1594 270-728 861-1387h-544Q959-688 678 32 397 753 397 1650v13z" id="LS-28" transform="scale(.01563)"/><path d="M3291 1706Q3291-63 2047-63q-384 0-639 139-255 140-414 449h-6q0-97-13-296Q963 31 956 0H413q18 169 18 697v3941h563V3316q0-203-13-478h13q156 325 414 465 258 141 639 141 641 0 942-432 302-431 302-1306zm-591-18q0 709-188 1015-187 306-609 306-475 0-692-325T994 1653q0-665 212-983 213-317 691-317 425 0 614 314t189 1021z" id="LS-62" transform="scale(.01563)"/><path d="M1734 1650q0-903-283-1622-282-719-870-1353H38Q625-669 897 57q272 727 272 1599T895 3256Q622 3984 38 4638h543q591-638 872-1359 281-720 281-1616v-13z" id="LS-29" transform="scale(.01563)"/></defs><use xlink:href="#LS-3a"/><use x="27.783" xlink:href="#LS-3d"/><use x="86.182" xlink:href="#LS-20"/><use x="113.965" xlink:href="#LS-4e"/><use x="186.182" xlink:href="#LS-65"/><use x="241.797" xlink:href="#LS-75"/><use x="297.412" xlink:href="#LS-72"/><use x="330.713" xlink:href="#LS-61"/><use x="386.328" xlink:href="#LS-6c"/><use x="408.545" xlink:href="#LS-20"/><use x="436.328" xlink:href="#LS-4d"/><use x="519.629" xlink:href="#LS-6f"/><use x="575.244" xlink:href="#LS-6e"/><use x="630.859" xlink:href="#LS-74"/><use x="658.643" xlink:href="#LS-65"/><use x="714.258" xlink:href="#LS-20"/><use x="742.041" xlink:href="#LS-43"/><use x="814.258" xlink:href="#LS-61"/><use x="869.873" xlink:href="#LS-72"/><use x="903.174" xlink:href="#LS-6c"/><use x="925.391" xlink:href="#LS-6f"/><use x="981.006" xlink:href="#LS-20"/><use x="1007.039" xlink:href="#LS-54"/><use x="1064.373" xlink:href="#LS-72"/><use x="1097.674" xlink:href="#LS-65"/><use x="1153.289" xlink:href="#LS-65"/><use x="1208.904" xlink:href="#LS-2d"/><use x="1242.205" xlink:href="#LS-53"/><use x="1308.904" xlink:href="#LS-65"/><use x="1364.52" xlink:href="#LS-61"/><use x="1420.135" xlink:href="#LS-72"/><use x="1453.436" xlink:href="#LS-63"/><use x="1503.436" xlink:href="#LS-68"/><use x="1559.051" xlink:href="#LS-20"/><use x="1586.834" xlink:href="#LS-28"/><use x="1620.135" xlink:href="#LS-4d"/><use x="1703.436" xlink:href="#LS-43"/><use x="1775.652" xlink:href="#LS-54"/><use x="1836.736" xlink:href="#LS-53"/><use x="1903.436" xlink:href="#LS-20"/><use x="1931.219" xlink:href="#LS-67"/><use x="1986.834" xlink:href="#LS-75"/><use x="2042.449" xlink:href="#LS-69"/><use x="2064.666" xlink:href="#LS-64"/><use x="2120.281" xlink:href="#LS-65"/><use x="2175.896" xlink:href="#LS-64"/><use x="2231.512" xlink:href="#LS-20"/><use x="2259.295" xlink:href="#LS-62"/><use x="2314.91" xlink:href="#LS-79"/><use x="2364.91" xlink:href="#LS-20"/><use x="2392.693" xlink:href="#LS-50"/><use x="2459.393" xlink:href="#LS-56"/><use x="2526.092" xlink:href="#LS-4e"/><use x="2598.309" xlink:href="#LS-29"/></g><g transform="matrix(.13 0 0 -.13 13.878 105.34)" id="text_13"><use xlink:href="#LS-54"/><use x="57.334" xlink:href="#LS-72"/><use x="90.635" xlink:href="#LS-61"/><use x="146.25" xlink:href="#LS-69"/><use x="168.467" xlink:href="#LS-6e"/><use x="224.082" xlink:href="#LS-20"/><use x="251.865" xlink:href="#LS-50"/><use x="318.564" xlink:href="#LS-56"/><use x="385.264" xlink:href="#LS-4e"/><use x="457.48" xlink:href="#LS-20"/><use x="485.264" xlink:href="#LS-6f"/><use x="540.879" xlink:href="#LS-6e"/><use x="596.494" xlink:href="#LS-20"/><use x="624.277" xlink:href="#LS-73"/><use x="674.277" xlink:href="#LS-74"/><use x="702.061" xlink:href="#LS-61"/><use x="757.676" xlink:href="#LS-67"/><use x="813.291" xlink:href="#LS-65"/><use x="868.906" xlink:href="#LS-31"/><use x="924.521" xlink:href="#LS-2d"/><use x="957.822" xlink:href="#LS-6d"/><use x="1041.123" xlink:href="#LS-63"/><use x="1091.123" xlink:href="#LS-74"/><use x="1118.906" xlink:href="#LS-73"/><use x="1168.906" xlink:href="#LS-20"/><use x="1196.689" xlink:href="#LS-64"/><use x="1252.305" xlink:href="#LS-61"/><use x="1307.92" xlink:href="#LS-74"/><use x="1335.703" xlink:href="#LS-61"/><use x="1391.318" xlink:href="#LS-73"/><use x="1441.318" xlink:href="#LS-65"/><use x="1496.934" xlink:href="#LS-74"/></g><g transform="matrix(.13 0 0 -.13 13.878 76.476)" id="text_14"><defs><path d="M4050 3009q0-425-194-759-193-334-554-517t-858-183H1350V0H428v4403h1978q791 0 1217-364 427-364 427-1030zm-928-15q0 694-819 694h-953V2259h978q381 0 587 189 207 190 207 546z" id="LS-Bold-50" transform="scale(.01563)"/><path d="M2606 0h-934L44 4403h962l907-2828q84-275 231-831l65 269 160 562 903 2828h953L2606 0z" id="LS-Bold-56" transform="scale(.01563)"/></defs><use xlink:href="#LS-Bold-50"/><use x="66.699" xlink:href="#LS-Bold-56"/><use x="133.398" xlink:href="#LS-Bold-4e"/></g><g transform="matrix(.13 0 0 -.13 74.72 76.476)" id="text_15"><defs><path d="M3291 1434q0-696-414-1097Q2463-63 1728-63q-615 0-994 269-378 269-478 778l569 66q178-653 916-653 453 0 709 273 256 274 256 752 0 416-258 672-257 256-695 256-228 0-425-72t-394-244H384l147 2369h2503v-478H1044l-85-1397q366 281 910 281 650 0 1036-381t386-994z" id="LS-35" transform="scale(.01563)"/><path d="M3931 1241q0-588-428-915Q3075 0 2313 0H525v4403h1600q1550 0 1550-1069 0-390-219-656-218-265-618-356 525-63 809-352t284-729zm-856 2022q0 356-244 509-243 153-706 153H1122V2531h1003q478 0 714 180t236 552zm253-1975q0 778-1094 778H1122V478h1159q547 0 797 203t250 607z" id="LS-42" transform="scale(.01563)"/></defs><use xlink:href="#LS-3a"/><use x="27.783" xlink:href="#LS-3d"/><use x="86.182" xlink:href="#LS-20"/><use x="113.965" xlink:href="#LS-50"/><use x="180.664" xlink:href="#LS-6f"/><use x="236.279" xlink:href="#LS-6c"/><use x="258.496" xlink:href="#LS-69"/><use x="280.713" xlink:href="#LS-63"/><use x="330.713" xlink:href="#LS-79"/><use x="380.713" xlink:href="#LS-2d"/><use x="414.014" xlink:href="#LS-56"/><use x="473.338" xlink:href="#LS-61"/><use x="528.953" xlink:href="#LS-6c"/><use x="551.17" xlink:href="#LS-75"/><use x="606.785" xlink:href="#LS-65"/><use x="662.4" xlink:href="#LS-20"/><use x="690.184" xlink:href="#LS-4e"/><use x="762.4" xlink:href="#LS-65"/><use x="818.016" xlink:href="#LS-74"/><use x="845.799" xlink:href="#LS-77"/><use x="918.016" xlink:href="#LS-6f"/><use x="973.631" xlink:href="#LS-72"/><use x="1006.932" xlink:href="#LS-6b"/><use x="1056.932" xlink:href="#LS-20"/><use x="1084.715" xlink:href="#LS-28"/><use x="1118.016" xlink:href="#LS-35"/><use x="1173.631" xlink:href="#LS-20"/><use x="1201.414" xlink:href="#LS-6d"/><use x="1284.715" xlink:href="#LS-6c"/><use x="1306.932" xlink:href="#LS-6e"/><use x="1362.547" xlink:href="#LS-20"/><use x="1390.33" xlink:href="#LS-70"/><use x="1445.945" xlink:href="#LS-61"/><use x="1501.561" xlink:href="#LS-72"/><use x="1534.861" xlink:href="#LS-61"/><use x="1590.477" xlink:href="#LS-6d"/><use x="1673.777" xlink:href="#LS-65"/><use x="1729.393" xlink:href="#LS-74"/><use x="1757.176" xlink:href="#LS-65"/><use x="1812.791" xlink:href="#LS-72"/><use x="1846.092" xlink:href="#LS-73"/><use x="1896.092" xlink:href="#LS-2c"/><use x="1923.875" xlink:href="#LS-20"/><use x="1951.658" xlink:href="#LS-32"/><use x="2007.273" xlink:href="#LS-30"/><use x="2062.889" xlink:href="#LS-20"/><use x="2090.672" xlink:href="#LS-4d"/><use x="2173.973" xlink:href="#LS-42"/><use x="2240.672" xlink:href="#LS-29"/></g><g transform="matrix(.13 0 0 -.13 13.878 47.61)" id="text_16"><use xlink:href="#LS-47"/><use x="77.783" xlink:href="#LS-65"/><use x="133.398" xlink:href="#LS-6e"/><use x="189.014" xlink:href="#LS-65"/><use x="244.629" xlink:href="#LS-72"/><use x="277.93" xlink:href="#LS-61"/><use x="333.545" xlink:href="#LS-74"/><use x="361.328" xlink:href="#LS-65"/><use x="416.943" xlink:href="#LS-20"/><use x="444.727" xlink:href="#LS-73"/><use x="494.727" xlink:href="#LS-65"/><use x="550.342" xlink:href="#LS-6c"/><use x="572.559" xlink:href="#LS-66"/><use x="600.342" xlink:href="#LS-2d"/><use x="633.643" xlink:href="#LS-70"/><use x="689.258" xlink:href="#LS-6c"/><use x="711.475" xlink:href="#LS-61"/><use x="767.09" xlink:href="#LS-79"/><use x="817.09" xlink:href="#LS-20"/><use x="844.873" xlink:href="#LS-64"/><use x="900.488" xlink:href="#LS-61"/><use x="956.104" xlink:href="#LS-74"/><use x="983.887" xlink:href="#LS-61"/><use x="1039.502" xlink:href="#LS-73"/><use x="1089.502" xlink:href="#LS-65"/><use x="1145.117" xlink:href="#LS-74"/><use x="1172.9" xlink:href="#LS-20"/><use x="1200.684" xlink:href="#LS-75"/><use x="1256.299" xlink:href="#LS-73"/><use x="1306.299" xlink:href="#LS-69"/><use x="1328.516" xlink:href="#LS-6e"/><use x="1384.131" xlink:href="#LS-67"/><use x="1439.746" xlink:href="#LS-20"/><use x="1467.529" xlink:href="#LS-4d"/><use x="1550.83" xlink:href="#LS-43"/><use x="1623.047" xlink:href="#LS-54"/><use x="1684.131" xlink:href="#LS-53"/><use x="1750.83" xlink:href="#LS-20"/><use x="1778.613" xlink:href="#LS-77"/><use x="1850.83" xlink:href="#LS-69"/><use x="1873.047" xlink:href="#LS-74"/><use x="1900.83" xlink:href="#LS-68"/><use x="1956.445" xlink:href="#LS-20"/><use x="1984.229" xlink:href="#LS-31"/><use x="2039.844" xlink:href="#LS-4d"/><use x="2123.145" xlink:href="#LS-20"/><use x="2150.928" xlink:href="#LS-73"/><use x="2200.928" xlink:href="#LS-69"/><use x="2223.145" xlink:href="#LS-6d"/><use x="2306.445" xlink:href="#LS-75"/><use x="2362.061" xlink:href="#LS-6c"/><use x="2384.277" xlink:href="#LS-61"/><use x="2439.893" xlink:href="#LS-74"/><use x="2467.676" xlink:href="#LS-69"/><use x="2489.893" xlink:href="#LS-6f"/><use x="2545.508" xlink:href="#LS-6e"/><use x="2601.123" xlink:href="#LS-73"/><use x="2651.123" xlink:href="#LS-20"/><use x="2678.906" xlink:href="#LS-70"/><use x="2734.521" xlink:href="#LS-65"/><use x="2790.137" xlink:href="#LS-72"/><use x="2823.438" xlink:href="#LS-20"/><use x="2851.221" xlink:href="#LS-70"/><use x="2906.836" xlink:href="#LS-6f"/><use x="2962.451" xlink:href="#LS-73"/><use x="3012.451" xlink:href="#LS-69"/><use x="3034.668" xlink:href="#LS-74"/><use x="3062.451" xlink:href="#LS-69"/><use x="3084.668" xlink:href="#LS-6f"/><use x="3140.283" xlink:href="#LS-6e"/></g><g transform="matrix(.13 0 0 -.13 470.828 47.61)" id="text_17"><use xlink:href="#LS-5b"/><use x="27.783" xlink:href="#LS-73"/><use x="77.783" xlink:href="#LS-74"/><use x="105.566" xlink:href="#LS-61"/><use x="161.182" xlink:href="#LS-67"/><use x="216.797" xlink:href="#LS-65"/><use x="272.412" xlink:href="#LS-31"/><use x="328.027" xlink:href="#LS-2d"/><use x="361.328" xlink:href="#LS-6d"/><use x="444.629" xlink:href="#LS-63"/><use x="494.629" xlink:href="#LS-74"/><use x="522.412" xlink:href="#LS-73"/><use x="572.412" xlink:href="#LS-5d"/></g><g transform="matrix(.13 0 0 -.13 13.878 18.746)" id="text_18"><use xlink:href="#LS-Bold-4d"/><use x="83.301" xlink:href="#LS-Bold-43"/><use x="155.518" xlink:href="#LS-Bold-54"/><use x="216.602" xlink:href="#LS-Bold-53"/></g><g transform="matrix(.13 0 0 -.13 74.72 18.746)" id="text_19"><use xlink:href="#LS-3a"/><use x="27.783" xlink:href="#LS-3d"/><use x="86.182" xlink:href="#LS-20"/><use x="113.965" xlink:href="#LS-4d"/><use x="197.266" xlink:href="#LS-6f"/><use x="252.881" xlink:href="#LS-6e"/><use x="308.496" xlink:href="#LS-74"/><use x="336.279" xlink:href="#LS-65"/><use x="391.895" xlink:href="#LS-20"/><use x="419.678" xlink:href="#LS-43"/><use x="491.895" xlink:href="#LS-61"/><use x="547.51" xlink:href="#LS-72"/><use x="580.811" xlink:href="#LS-6c"/><use x="603.027" xlink:href="#LS-6f"/><use x="658.643" xlink:href="#LS-20"/><use x="684.676" xlink:href="#LS-54"/><use x="742.01" xlink:href="#LS-72"/><use x="775.311" xlink:href="#LS-65"/><use x="830.926" xlink:href="#LS-65"/><use x="886.541" xlink:href="#LS-2d"/><use x="919.842" xlink:href="#LS-53"/><use x="986.541" xlink:href="#LS-65"/><use x="1042.156" xlink:href="#LS-61"/><use x="1097.771" xlink:href="#LS-72"/><use x="1131.072" xlink:href="#LS-63"/><use x="1181.072" xlink:href="#LS-68"/><use x="1236.688" xlink:href="#LS-20"/><use x="1264.471" xlink:href="#LS-28"/><use x="1297.771" xlink:href="#LS-77"/><use x="1369.988" xlink:href="#LS-69"/><use x="1392.205" xlink:href="#LS-74"/><use x="1419.988" xlink:href="#LS-68"/><use x="1475.604" xlink:href="#LS-20"/><use x="1503.387" xlink:href="#LS-72"/><use x="1536.688" xlink:href="#LS-61"/><use x="1592.303" xlink:href="#LS-6e"/><use x="1647.918" xlink:href="#LS-64"/><use x="1703.533" xlink:href="#LS-6f"/><use x="1759.148" xlink:href="#LS-6d"/><use x="1842.449" xlink:href="#LS-20"/><use x="1870.232" xlink:href="#LS-70"/><use x="1925.848" xlink:href="#LS-6c"/><use x="1948.064" xlink:href="#LS-61"/><use x="2003.68" xlink:href="#LS-79"/><use x="2053.68" xlink:href="#LS-6f"/><use x="2109.295" xlink:href="#LS-75"/><use x="2164.91" xlink:href="#LS-74"/><use x="2192.693" xlink:href="#LS-73"/><use x="2242.693" xlink:href="#LS-29"/></g></g></g><defs><clipPath id="p7963c7b518"><path d="M7.2 7.2h547.584v329.059H7.2z"/></clipPath></defs></svg>