<svg height="449.42" viewBox="0 0 868.67 337.065" width="868.67pt" xmlns="http://www.w3.org/2000/svg" xmlns:xlink="http://www.w3.org/1999/xlink"><defs><style>*{stroke-linecap:butt;stroke-linejoin:round}</style></defs><g id="figure_1"><path d="M0 337.065h868.67V0H0z" style="fill:#fff" id="patch_1"/><g id="axes_1"><path d="M80.27 295.638h781.2v-271.8H80.27z" style="fill:#fff" id="patch_2"/><g id="matplotlib.axis_1"><g id="xtick_1"><path clip-path="url(#p09d6145b84)" d="M119.73 295.638v-271.8" style="fill:none;stroke:#d3d3d3;stroke-dasharray:2.96,1.28;stroke-dashoffset:0;stroke-width:.8" id="line2d_1"/><g id="line2d_2"><defs><path d="M0 0v3.5" id="m51d09fc581" style="stroke:#000;stroke-width:.8"/></defs><use style="stroke:#000;stroke-width:.8" x="119.729" xlink:href="#m51d09fc581" y="295.638"/></g><g transform="matrix(.11 0 0 -.11 116.23 310.996)" id="text_1"><defs><path d="M2034 4250q-487 0-733-480-245-479-245-1442 0-959 245-1439 246-480 733-480 491 0 736 480 246 480 246 1439 0 963-246 1442-245 480-736 480zm0 500q785 0 1199-621 414-620 414-1801 0-1178-414-1799Q2819-91 2034-91q-784 0-1198 620-414 621-414 1799 0 1181 414 1801 414 621 1198 621z" id="DVS-30" transform="scale(.01563)"/></defs><use xlink:href="#DVS-30"/></g></g><g id="xtick_2"><path clip-path="url(#p09d6145b84)" d="M163.622 295.638v-271.8" style="fill:none;stroke:#d3d3d3;stroke-dasharray:2.96,1.28;stroke-dashoffset:0;stroke-width:.8" id="line2d_3"/><use style="stroke:#000;stroke-width:.8" x="163.622" xlink:href="#m51d09fc581" y="295.638" id="line2d_4"/><g transform="matrix(.11 0 0 -.11 160.123 310.996)" id="text_2"><defs><path d="M691 4666h2478v-532H1269V2991q137 47 274 70 138 23 276 23 781 0 1237-428 457-428 457-1159 0-753-469-1171Q2575-91 1722-91q-294 0-599 50Q819 9 494 109v635q281-153 581-228t634-75q541 0 856 284 316 284 316 772 0 487-316 771-315 285-856 285-253 0-505-56-251-56-513-175v2344z" id="DVS-35" transform="scale(.01563)"/></defs><use xlink:href="#DVS-35"/></g></g><g id="xtick_3"><path clip-path="url(#p09d6145b84)" d="M207.515 295.638v-271.8" style="fill:none;stroke:#d3d3d3;stroke-dasharray:2.96,1.28;stroke-dashoffset:0;stroke-width:.8" id="line2d_5"/><use style="stroke:#000;stroke-width:.8" x="207.515" xlink:href="#m51d09fc581" y="295.638" id="line2d_6"/><g transform="matrix(.11 0 0 -.11 200.516 310.996)" id="text_3"><defs><path d="M794 531h1031v3560L703 3866v575l1116 225h631V531h1031V0H794v531z" id="DVS-31" transform="scale(.01563)"/></defs><use xlink:href="#DVS-31"/><use x="63.623" xlink:href="#DVS-30"/></g></g><g id="xtick_4"><path clip-path="url(#p09d6145b84)" d="M251.407 295.638v-271.8" style="fill:none;stroke:#d3d3d3;stroke-dasharray:2.96,1.28;stroke-dashoffset:0;stroke-width:.8" id="line2d_7"/><use style="stroke:#000;stroke-width:.8" x="251.407" xlink:href="#m51d09fc581" y="295.638" id="line2d_8"/><g transform="matrix(.11 0 0 -.11 244.408 310.996)" id="text_4"><use xlink:href="#DVS-31"/><use x="63.623" xlink:href="#DVS-35"/></g></g><g id="xtick_5"><path clip-path="url(#p09d6145b84)" d="M295.3 295.638v-271.8" style="fill:none;stroke:#d3d3d3;stroke-dasharray:2.96,1.28;stroke-dashoffset:0;stroke-width:.8" id="line2d_9"/><use style="stroke:#000;stroke-width:.8" x="295.3" xlink:href="#m51d09fc581" y="295.638" id="line2d_10"/><g transform="matrix(.11 0 0 -.11 288.301 310.996)" id="text_5"><defs><path d="M1228 531h2203V0H469v531q359 372 979 998 621 627 780 809 303 340 423 576 121 236 121 464 0 372-261 606-261 235-680 235-297 0-627-103-329-103-704-313v638q381 153 712 231 332 78 607 78 725 0 1156-363 431-362 431-968 0-288-108-546-107-257-392-607-78-91-497-524-418-433-1181-1211z" id="DVS-32" transform="scale(.01563)"/></defs><use xlink:href="#DVS-32"/><use x="63.623" xlink:href="#DVS-30"/></g></g><g id="xtick_6"><path clip-path="url(#p09d6145b84)" d="M339.192 295.638v-271.8" style="fill:none;stroke:#d3d3d3;stroke-dasharray:2.96,1.28;stroke-dashoffset:0;stroke-width:.8" id="line2d_11"/><use style="stroke:#000;stroke-width:.8" x="339.192" xlink:href="#m51d09fc581" y="295.638" id="line2d_12"/><g transform="matrix(.11 0 0 -.11 332.194 310.996)" id="text_6"><use xlink:href="#DVS-32"/><use x="63.623" xlink:href="#DVS-35"/></g></g><g id="xtick_7"><path clip-path="url(#p09d6145b84)" d="M383.085 295.638v-271.8" style="fill:none;stroke:#d3d3d3;stroke-dasharray:2.96,1.28;stroke-dashoffset:0;stroke-width:.8" id="line2d_13"/><use style="stroke:#000;stroke-width:.8" x="383.085" xlink:href="#m51d09fc581" y="295.638" id="line2d_14"/><g transform="matrix(.11 0 0 -.11 376.086 310.996)" id="text_7"><defs><path d="M2597 2516q453-97 707-404 255-306 255-756 0-690-475-1069Q2609-91 1734-91q-293 0-604 58T488 141v609q262-153 574-231 313-78 654-78 593 0 904 234t311 681q0 413-289 645-289 233-804 233h-544v519h569q465 0 712 186t247 536q0 359-255 551-254 193-729 193-260 0-557-57-297-56-653-174v562q360 100 674 150t592 50q719 0 1137-327 419-326 419-882 0-388-222-655t-631-370z" id="DVS-33" transform="scale(.01563)"/></defs><use xlink:href="#DVS-33"/><use x="63.623" xlink:href="#DVS-30"/></g></g><g id="xtick_8"><path clip-path="url(#p09d6145b84)" d="M426.977 295.638v-271.8" style="fill:none;stroke:#d3d3d3;stroke-dasharray:2.96,1.28;stroke-dashoffset:0;stroke-width:.8" id="line2d_15"/><use style="stroke:#000;stroke-width:.8" x="426.977" xlink:href="#m51d09fc581" y="295.638" id="line2d_16"/><g transform="matrix(.11 0 0 -.11 419.979 310.996)" id="text_8"><use xlink:href="#DVS-33"/><use x="63.623" xlink:href="#DVS-35"/></g></g><g id="xtick_9"><path clip-path="url(#p09d6145b84)" d="M470.87 295.638v-271.8" style="fill:none;stroke:#d3d3d3;stroke-dasharray:2.96,1.28;stroke-dashoffset:0;stroke-width:.8" id="line2d_17"/><use style="stroke:#000;stroke-width:.8" x="470.87" xlink:href="#m51d09fc581" y="295.638" id="line2d_18"/><g transform="matrix(.11 0 0 -.11 463.871 310.996)" id="text_9"><defs><path d="M2419 4116 825 1625h1594v2491zm-166 550h794V1625h666v-525h-666V0h-628v1100H313v609l1940 2957z" id="DVS-34" transform="scale(.01563)"/></defs><use xlink:href="#DVS-34"/><use x="63.623" xlink:href="#DVS-30"/></g></g><g id="xtick_10"><path clip-path="url(#p09d6145b84)" d="M514.763 295.638v-271.8" style="fill:none;stroke:#d3d3d3;stroke-dasharray:2.96,1.28;stroke-dashoffset:0;stroke-width:.8" id="line2d_19"/><use style="stroke:#000;stroke-width:.8" x="514.763" xlink:href="#m51d09fc581" y="295.638" id="line2d_20"/><g transform="matrix(.11 0 0 -.11 507.764 310.996)" id="text_10"><use xlink:href="#DVS-34"/><use x="63.623" xlink:href="#DVS-35"/></g></g><g id="xtick_11"><path clip-path="url(#p09d6145b84)" d="M558.655 295.638v-271.8" style="fill:none;stroke:#d3d3d3;stroke-dasharray:2.96,1.28;stroke-dashoffset:0;stroke-width:.8" id="line2d_21"/><use style="stroke:#000;stroke-width:.8" x="558.655" xlink:href="#m51d09fc581" y="295.638" id="line2d_22"/><g transform="matrix(.11 0 0 -.11 551.656 310.996)" id="text_11"><use xlink:href="#DVS-35"/><use x="63.623" xlink:href="#DVS-30"/></g></g><g id="xtick_12"><path clip-path="url(#p09d6145b84)" d="M602.548 295.638v-271.8" style="fill:none;stroke:#d3d3d3;stroke-dasharray:2.96,1.28;stroke-dashoffset:0;stroke-width:.8" id="line2d_23"/><use style="stroke:#000;stroke-width:.8" x="602.548" xlink:href="#m51d09fc581" y="295.638" id="line2d_24"/><g transform="matrix(.11 0 0 -.11 595.549 310.996)" id="text_12"><use xlink:href="#DVS-35"/><use x="63.623" xlink:href="#DVS-35"/></g></g><g id="xtick_13"><path clip-path="url(#p09d6145b84)" d="M646.44 295.638v-271.8" style="fill:none;stroke:#d3d3d3;stroke-dasharray:2.96,1.28;stroke-dashoffset:0;stroke-width:.8" id="line2d_25"/><use style="stroke:#000;stroke-width:.8" x="646.44" xlink:href="#m51d09fc581" y="295.638" id="line2d_26"/><g transform="matrix(.11 0 0 -.11 639.442 310.996)" id="text_13"><defs><path d="M2113 2584q-425 0-674-291-248-290-248-796 0-503 248-796 249-292 674-292t673 292q248 293 248 796 0 506-248 796-248 291-673 291zm1253 1979v-575q-238 112-480 171-242 60-480 60-625 0-955-422-329-422-376-1275 184 272 462 417 279 145 613 145 703 0 1111-427 408-426 408-1160 0-719-425-1154Q2819-91 2113-91q-810 0-1238 620-428 621-428 1799 0 1106 525 1764t1409 658q238 0 480-47t505-140z" id="DVS-36" transform="scale(.01563)"/></defs><use xlink:href="#DVS-36"/><use x="63.623" xlink:href="#DVS-30"/></g></g><g id="xtick_14"><path clip-path="url(#p09d6145b84)" d="M690.333 295.638v-271.8" style="fill:none;stroke:#d3d3d3;stroke-dasharray:2.96,1.28;stroke-dashoffset:0;stroke-width:.8" id="line2d_27"/><use style="stroke:#000;stroke-width:.8" x="690.333" xlink:href="#m51d09fc581" y="295.638" id="line2d_28"/><g transform="matrix(.11 0 0 -.11 683.334 310.996)" id="text_14"><use xlink:href="#DVS-36"/><use x="63.623" xlink:href="#DVS-35"/></g></g><g id="xtick_15"><path clip-path="url(#p09d6145b84)" d="M734.225 295.638v-271.8" style="fill:none;stroke:#d3d3d3;stroke-dasharray:2.96,1.28;stroke-dashoffset:0;stroke-width:.8" id="line2d_29"/><use style="stroke:#000;stroke-width:.8" x="734.225" xlink:href="#m51d09fc581" y="295.638" id="line2d_30"/><g transform="matrix(.11 0 0 -.11 727.227 310.996)" id="text_15"><defs><path d="M525 4666h3000v-269L1831 0h-659l1594 4134H525v532z" id="DVS-37" transform="scale(.01563)"/></defs><use xlink:href="#DVS-37"/><use x="63.623" xlink:href="#DVS-30"/></g></g><g id="xtick_16"><path clip-path="url(#p09d6145b84)" d="M778.118 295.638v-271.8" style="fill:none;stroke:#d3d3d3;stroke-dasharray:2.96,1.28;stroke-dashoffset:0;stroke-width:.8" id="line2d_31"/><use style="stroke:#000;stroke-width:.8" x="778.118" xlink:href="#m51d09fc581" y="295.638" id="line2d_32"/><g transform="matrix(.11 0 0 -.11 771.12 310.996)" id="text_16"><use xlink:href="#DVS-37"/><use x="63.623" xlink:href="#DVS-35"/></g></g><g id="xtick_17"><path clip-path="url(#p09d6145b84)" d="M822.01 295.638v-271.8" style="fill:none;stroke:#d3d3d3;stroke-dasharray:2.96,1.28;stroke-dashoffset:0;stroke-width:.8" id="line2d_33"/><use style="stroke:#000;stroke-width:.8" x="822.011" xlink:href="#m51d09fc581" y="295.638" id="line2d_34"/><g transform="matrix(.11 0 0 -.11 815.012 310.996)" id="text_17"><defs><path d="M2034 2216q-450 0-708-241-257-241-257-662 0-422 257-663 258-241 708-241t709 242q260 243 260 662 0 421-258 662-257 241-711 241zm-631 268q-406 100-633 378-226 279-226 679 0 559 398 884 399 325 1092 325 697 0 1094-325t397-884q0-400-227-679-226-278-629-378 456-106 710-416 255-309 255-755 0-679-414-1042Q2806-91 2034-91q-771 0-1186 362-414 363-414 1042 0 446 256 755 257 310 713 416zm-231 997q0-362 226-565 227-203 636-203 407 0 636 203 230 203 230 565 0 363-230 566-229 203-636 203-409 0-636-203-226-203-226-566z" id="DVS-38" transform="scale(.01563)"/></defs><use xlink:href="#DVS-38"/><use x="63.623" xlink:href="#DVS-30"/></g></g><g transform="matrix(.13 0 0 -.13 451.95 327.162)" id="text_18"><defs><path d="M2906 2969v1894h575V0h-575v525q-181-312-458-464-276-152-664-152-634 0-1033 506-398 507-398 1332t398 1331q399 506 1033 506 388 0 664-152 277-151 458-463zM947 1747q0-634 261-995t717-361q456 0 718 361 263 361 263 995t-263 995q-262 361-718 361t-717-361q-261-361-261-995z" id="DVS-64" transform="scale(.01563)"/><path d="M3597 1894v-281H953q38-594 358-905t892-311q331 0 642 81t618 244V178Q3153 47 2828-22t-659-69q-838 0-1327 487-489 488-489 1320 0 859 464 1363 464 505 1252 505 706 0 1117-455 411-454 411-1235zm-575 169q-6 471-264 752-258 282-683 282-481 0-770-272t-333-766l2050 4z" id="DVS-65" transform="scale(.01563)"/><path d="M1159 525v-1856H581v4831h578v-531q182 312 458 463 277 152 661 152 638 0 1036-506 399-506 399-1331T3314 415Q2916-91 2278-91q-384 0-661 152-276 152-458 464zm1957 1222q0 634-261 995t-717 361q-457 0-718-361t-261-995q0-634 261-995t718-361q456 0 717 361t261 995z" id="DVS-70" transform="scale(.01563)"/><path d="M1172 4494v-994h1184v-447H1172V1153q0-428 117-550t477-122h590V0h-590q-666 0-919 248-253 249-253 905v1900H172v447h422v994h578z" id="DVS-74" transform="scale(.01563)"/><path d="M3513 2113V0h-575v2094q0 497-194 743-194 247-581 247-466 0-735-297-269-296-269-809V0H581v4863h578V2956q207 316 486 472 280 156 646 156 603 0 912-373 310-373 310-1098z" id="DVS-68" transform="scale(.01563)"/></defs><use xlink:href="#DVS-64"/><use x="63.477" xlink:href="#DVS-65"/><use x="125" xlink:href="#DVS-70"/><use x="188.477" xlink:href="#DVS-74"/><use x="227.686" xlink:href="#DVS-68"/></g></g><g id="matplotlib.axis_2"><g id="ytick_1"><path clip-path="url(#p09d6145b84)" d="M80.27 265.17h781.2" style="fill:none;stroke:#d3d3d3;stroke-dasharray:2.96,1.28;stroke-dashoffset:0;stroke-width:.8" id="line2d_35"/><g id="line2d_36"><defs><path d="M0 0h-3.5" id="m714e2d1ba0" style="stroke:#000;stroke-width:.8"/></defs><use style="stroke:#000;stroke-width:.8" x="80.27" xlink:href="#m714e2d1ba0" y="265.17"/></g><g transform="matrix(.11 0 0 -.11 34.78 269.349)" id="text_19"><defs><path d="M750 794h659V256L897-744H494L750 256v538z" id="DVS-2c" transform="scale(.01563)"/></defs><use xlink:href="#DVS-32"/><use x="63.623" xlink:href="#DVS-30"/><use x="127.246" xlink:href="#DVS-2c"/><use x="159.033" xlink:href="#DVS-30"/><use x="222.656" xlink:href="#DVS-30"/><use x="286.279" xlink:href="#DVS-30"/></g></g><g id="ytick_2"><path clip-path="url(#p09d6145b84)" d="M80.27 234.701h781.2" style="fill:none;stroke:#d3d3d3;stroke-dasharray:2.96,1.28;stroke-dashoffset:0;stroke-width:.8" id="line2d_37"/><use style="stroke:#000;stroke-width:.8" x="80.27" xlink:href="#m714e2d1ba0" y="234.701" id="line2d_38"/><g transform="matrix(.11 0 0 -.11 34.78 238.88)" id="text_20"><use xlink:href="#DVS-34"/><use x="63.623" xlink:href="#DVS-30"/><use x="127.246" xlink:href="#DVS-2c"/><use x="159.033" xlink:href="#DVS-30"/><use x="222.656" xlink:href="#DVS-30"/><use x="286.279" xlink:href="#DVS-30"/></g></g><g id="ytick_3"><path clip-path="url(#p09d6145b84)" d="M80.27 204.233h781.2" style="fill:none;stroke:#d3d3d3;stroke-dasharray:2.96,1.28;stroke-dashoffset:0;stroke-width:.8" id="line2d_39"/><use style="stroke:#000;stroke-width:.8" x="80.27" xlink:href="#m714e2d1ba0" y="204.233" id="line2d_40"/><g transform="matrix(.11 0 0 -.11 34.78 208.412)" id="text_21"><use xlink:href="#DVS-36"/><use x="63.623" xlink:href="#DVS-30"/><use x="127.246" xlink:href="#DVS-2c"/><use x="159.033" xlink:href="#DVS-30"/><use x="222.656" xlink:href="#DVS-30"/><use x="286.279" xlink:href="#DVS-30"/></g></g><g id="ytick_4"><path clip-path="url(#p09d6145b84)" d="M80.27 173.765h781.2" style="fill:none;stroke:#d3d3d3;stroke-dasharray:2.96,1.28;stroke-dashoffset:0;stroke-width:.8" id="line2d_41"/><use style="stroke:#000;stroke-width:.8" x="80.27" xlink:href="#m714e2d1ba0" y="173.765" id="line2d_42"/><g transform="matrix(.11 0 0 -.11 34.78 177.944)" id="text_22"><use xlink:href="#DVS-38"/><use x="63.623" xlink:href="#DVS-30"/><use x="127.246" xlink:href="#DVS-2c"/><use x="159.033" xlink:href="#DVS-30"/><use x="222.656" xlink:href="#DVS-30"/><use x="286.279" xlink:href="#DVS-30"/></g></g><g id="ytick_5"><path clip-path="url(#p09d6145b84)" d="M80.27 143.296h781.2" style="fill:none;stroke:#d3d3d3;stroke-dasharray:2.96,1.28;stroke-dashoffset:0;stroke-width:.8" id="line2d_43"/><use style="stroke:#000;stroke-width:.8" x="80.27" xlink:href="#m714e2d1ba0" y="143.296" id="line2d_44"/><g transform="matrix(.11 0 0 -.11 27.782 147.475)" id="text_23"><use xlink:href="#DVS-31"/><use x="63.623" xlink:href="#DVS-30"/><use x="127.246" xlink:href="#DVS-30"/><use x="190.869" xlink:href="#DVS-2c"/><use x="222.656" xlink:href="#DVS-30"/><use x="286.279" xlink:href="#DVS-30"/><use x="349.902" xlink:href="#DVS-30"/></g></g><g id="ytick_6"><path clip-path="url(#p09d6145b84)" d="M80.27 112.828h781.2" style="fill:none;stroke:#d3d3d3;stroke-dasharray:2.96,1.28;stroke-dashoffset:0;stroke-width:.8" id="line2d_45"/><use style="stroke:#000;stroke-width:.8" x="80.27" xlink:href="#m714e2d1ba0" y="112.828" id="line2d_46"/><g transform="matrix(.11 0 0 -.11 27.782 117.007)" id="text_24"><use xlink:href="#DVS-31"/><use x="63.623" xlink:href="#DVS-32"/><use x="127.246" xlink:href="#DVS-30"/><use x="190.869" xlink:href="#DVS-2c"/><use x="222.656" xlink:href="#DVS-30"/><use x="286.279" xlink:href="#DVS-30"/><use x="349.902" xlink:href="#DVS-30"/></g></g><g id="ytick_7"><path clip-path="url(#p09d6145b84)" d="M80.27 82.36h781.2" style="fill:none;stroke:#d3d3d3;stroke-dasharray:2.96,1.28;stroke-dashoffset:0;stroke-width:.8" id="line2d_47"/><use style="stroke:#000;stroke-width:.8" x="80.27" xlink:href="#m714e2d1ba0" y="82.36" id="line2d_48"/><g transform="matrix(.11 0 0 -.11 27.782 86.539)" id="text_25"><use xlink:href="#DVS-31"/><use x="63.623" xlink:href="#DVS-34"/><use x="127.246" xlink:href="#DVS-30"/><use x="190.869" xlink:href="#DVS-2c"/><use x="222.656" xlink:href="#DVS-30"/><use x="286.279" xlink:href="#DVS-30"/><use x="349.902" xlink:href="#DVS-30"/></g></g><g id="ytick_8"><path clip-path="url(#p09d6145b84)" d="M80.27 51.891h781.2" style="fill:none;stroke:#d3d3d3;stroke-dasharray:2.96,1.28;stroke-dashoffset:0;stroke-width:.8" id="line2d_49"/><use style="stroke:#000;stroke-width:.8" x="80.27" xlink:href="#m714e2d1ba0" y="51.891" id="line2d_50"/><g transform="matrix(.11 0 0 -.11 27.782 56.07)" id="text_26"><use xlink:href="#DVS-31"/><use x="63.623" xlink:href="#DVS-36"/><use x="127.246" xlink:href="#DVS-30"/><use x="190.869" xlink:href="#DVS-2c"/><use x="222.656" xlink:href="#DVS-30"/><use x="286.279" xlink:href="#DVS-30"/><use x="349.902" xlink:href="#DVS-30"/></g></g><g transform="matrix(0 -.13 -.13 0 17.078 230.107)" id="text_27"><defs><path d="M3513 2113V0h-575v2094q0 497-194 743-194 247-581 247-466 0-735-297-269-296-269-809V0H581v3500h578v-544q207 316 486 472 280 156 646 156 603 0 912-373 310-373 310-1098z" id="DVS-6e" transform="scale(.01563)"/><path d="M544 1381v2119h575V1403q0-497 193-746 194-248 582-248 465 0 735 297 271 297 271 810v1984h575V0h-575v538q-209-319-486-474-276-155-642-155-603 0-916 375-312 375-312 1097zm1447 2203z" id="DVS-75" transform="scale(.01563)"/><path d="M3328 2828q216 388 516 572t706 184q547 0 844-383 297-382 297-1088V0h-578v2094q0 503-179 746-178 244-543 244-447 0-707-297-259-296-259-809V0h-578v2094q0 506-178 748t-550 242q-441 0-701-298-259-298-259-808V0H581v3500h578v-544q197 322 472 475t653 153q382 0 649-194 267-193 395-562z" id="DVS-6d" transform="scale(.01563)"/><path d="M3116 1747q0 634-261 995t-717 361q-457 0-718-361t-261-995q0-634 261-995t718-361q456 0 717 361t261 995zM1159 2969q182 312 458 463 277 152 661 152 638 0 1036-506 399-506 399-1331T3314 415Q2916-91 2278-91q-384 0-661 152-276 152-458 464V0H581v4863h578V2969z" id="DVS-62" transform="scale(.01563)"/><path d="M2631 2963q-97 56-211 82-114 27-251 27-488 0-749-317t-261-911V0H581v3500h578v-544q182 319 472 473 291 155 707 155 59 0 131-8 72-7 159-23l3-590z" id="DVS-72" transform="scale(.01563)"/><path d="M1959 3097q-462 0-731-361t-269-989q0-628 267-989 268-361 733-361 460 0 728 362 269 363 269 988 0 622-269 986-268 364-728 364zm0 487q750 0 1178-488 429-487 429-1349 0-859-429-1349Q2709-91 1959-91q-753 0-1180 489-426 490-426 1349 0 862 426 1349 427 488 1180 488z" id="DVS-6f" transform="scale(.01563)"/><path d="M2375 4863v-479h-550q-309 0-430-125-120-125-120-450v-309h947v-447h-947V0H697v3053H147v447h550v244q0 584 272 851 272 268 862 268h544z" id="DVS-66" transform="scale(.01563)"/><path d="M2194 1759q-697 0-966-159t-269-544q0-306 202-486 202-179 548-179 479 0 768 339t289 901v128h-572zm1147 238V0h-575v531q-197-318-491-470T1556-91q-537 0-855 302-317 302-317 808 0 590 395 890 396 300 1180 300h807v57q0 397-261 614t-733 217q-300 0-585-72-284-72-546-216v532q315 122 612 182 297 61 578 61 760 0 1135-394 375-393 375-1193z" id="DVS-61" transform="scale(.01563)"/><path d="M603 3500h575V0H603v3500zm0 1363h575v-729H603v729z" id="DVS-69" transform="scale(.01563)"/><path d="M2834 3397v-544q-243 125-506 187-262 63-544 63-428 0-642-131t-214-394q0-200 153-314t616-217l197-44q612-131 870-370t258-667q0-488-386-773Q2250-91 1575-91q-281 0-586 55T347 128v594q319-166 628-249 309-82 613-82 406 0 624 139 219 139 219 392 0 234-158 359-157 125-692 241l-200 47q-534 112-772 345-237 233-237 639 0 494 350 762 350 269 994 269 318 0 599-47 282-46 519-140z" id="DVS-73" transform="scale(.01563)"/></defs><use xlink:href="#DVS-6e"/><use x="63.379" xlink:href="#DVS-75"/><use x="126.758" xlink:href="#DVS-6d"/><use x="224.17" xlink:href="#DVS-62"/><use x="287.646" xlink:href="#DVS-65"/><use x="349.17" xlink:href="#DVS-72"/><use x="390.283" xlink:href="#DVS-20"/><use x="422.07" xlink:href="#DVS-6f"/><use x="483.252" xlink:href="#DVS-66"/><use x="518.457" xlink:href="#DVS-20"/><use x="550.244" xlink:href="#DVS-64"/><use x="613.721" xlink:href="#DVS-61"/><use x="675" xlink:href="#DVS-74"/><use x="714.209" xlink:href="#DVS-61"/><use x="775.488" xlink:href="#DVS-70"/><use x="838.965" xlink:href="#DVS-6f"/><use x="900.146" xlink:href="#DVS-69"/><use x="927.93" xlink:href="#DVS-6e"/><use x="991.309" xlink:href="#DVS-74"/><use x="1030.518" xlink:href="#DVS-73"/></g></g><path clip-path="url(#p09d6145b84)" d="M115.78 295.638h7.9v-.028h-7.9z" style="fill:#1f77b4" id="patch_3"/><path clip-path="url(#p09d6145b84)" d="M124.558 295.638h7.9v-.549h-7.9z" style="fill:#1f77b4" id="patch_4"/><path clip-path="url(#p09d6145b84)" d="M133.336 295.638h7.9v-2.025h-7.9z" style="fill:#1f77b4" id="patch_5"/><path clip-path="url(#p09d6145b84)" d="M142.115 295.638h7.9v-6.117h-7.9z" style="fill:#1f77b4" id="patch_6"/><path clip-path="url(#p09d6145b84)" d="M150.893 295.638h7.9v-19.049h-7.9z" style="fill:#1f77b4" id="patch_7"/><path clip-path="url(#p09d6145b84)" d="M159.672 295.638h7.9v-57.143h-7.9z" style="fill:#1f77b4" id="patch_8"/><path clip-path="url(#p09d6145b84)" d="M168.45 295.638h7.9V124.126h-7.9z" style="fill:#1f77b4" id="patch_9"/><path clip-path="url(#p09d6145b84)" d="M177.229 295.638h7.9V99.436h-7.9z" style="fill:#1f77b4" id="patch_10"/><path clip-path="url(#p09d6145b84)" d="M186.007 295.638h7.9V73.488h-7.9z" style="fill:#1f77b4" id="patch_11"/><path clip-path="url(#p09d6145b84)" d="M194.786 295.638h7.9V55.296h-7.9z" style="fill:#1f77b4" id="patch_12"/><path clip-path="url(#p09d6145b84)" d="M203.564 295.638h7.9V41.474h-7.9z" style="fill:#1f77b4" id="patch_13"/><path clip-path="url(#p09d6145b84)" d="M212.343 295.638h7.9V41.232h-7.9z" style="fill:#1f77b4" id="patch_14"/><path clip-path="url(#p09d6145b84)" d="M221.121 295.638h7.9V41.07h-7.9z" style="fill:#1f77b4" id="patch_15"/><path clip-path="url(#p09d6145b84)" d="M229.9 295.638h7.9V40.905h-7.9z" style="fill:#1f77b4" id="patch_16"/><path clip-path="url(#p09d6145b84)" d="M238.678 295.638h7.901V40.696h-7.9z" style="fill:#1f77b4" id="patch_17"/><path clip-path="url(#p09d6145b84)" d="M247.457 295.638h7.9V40.435h-7.9z" style="fill:#1f77b4" id="patch_18"/><path clip-path="url(#p09d6145b84)" d="M256.235 295.638h7.901V40.274h-7.9z" style="fill:#1f77b4" id="patch_19"/><path clip-path="url(#p09d6145b84)" d="M265.014 295.638h7.9V40.144h-7.9z" style="fill:#1f77b4" id="patch_20"/><path clip-path="url(#p09d6145b84)" d="M273.792 295.638h7.901V39.955h-7.9z" style="fill:#1f77b4" id="patch_21"/><path clip-path="url(#p09d6145b84)" d="M282.57 295.638h7.902V39.859h-7.901z" style="fill:#1f77b4" id="patch_22"/><path clip-path="url(#p09d6145b84)" d="M291.35 295.638h7.9V39.657h-7.9z" style="fill:#1f77b4" id="patch_23"/><path clip-path="url(#p09d6145b84)" d="M300.128 295.638h7.9V39.415h-7.9z" style="fill:#1f77b4" id="patch_24"/><path clip-path="url(#p09d6145b84)" d="M308.906 295.638h7.901V39.169h-7.9z" style="fill:#1f77b4" id="patch_25"/><path clip-path="url(#p09d6145b84)" d="M317.685 295.638h7.9V38.93h-7.9z" style="fill:#1f77b4" id="patch_26"/><path clip-path="url(#p09d6145b84)" d="M326.463 295.638h7.901V38.72h-7.9z" style="fill:#1f77b4" id="patch_27"/><path clip-path="url(#p09d6145b84)" d="M335.242 295.638h7.9V38.518h-7.9z" style="fill:#1f77b4" id="patch_28"/><path clip-path="url(#p09d6145b84)" d="M344.02 295.638h7.901V38.292h-7.9z" style="fill:#1f77b4" id="patch_29"/><path clip-path="url(#p09d6145b84)" d="M352.799 295.638h7.9V38.069h-7.9z" style="fill:#1f77b4" id="patch_30"/><path clip-path="url(#p09d6145b84)" d="M361.577 295.638h7.901V37.842h-7.9z" style="fill:#1f77b4" id="patch_31"/><path clip-path="url(#p09d6145b84)" d="M370.356 295.638h7.9V37.587h-7.9z" style="fill:#1f77b4" id="patch_32"/><path clip-path="url(#p09d6145b84)" d="M379.135 295.638h7.9V37.382h-7.9z" style="fill:#1f77b4" id="patch_33"/><path clip-path="url(#p09d6145b84)" d="M387.913 295.638h7.9V37.188h-7.9z" style="fill:#1f77b4" id="patch_34"/><path clip-path="url(#p09d6145b84)" d="M396.692 295.638h7.9V37.014h-7.9z" style="fill:#1f77b4" id="patch_35"/><path clip-path="url(#p09d6145b84)" d="M405.47 295.638h7.9V36.88h-7.9z" style="fill:#1f77b4" id="patch_36"/><path clip-path="url(#p09d6145b84)" d="M414.249 295.638h7.9V36.78h-7.9z" style="fill:#1f77b4" id="patch_37"/><path clip-path="url(#p09d6145b84)" d="M423.027 295.638h7.9V36.8h-7.9z" style="fill:#1f77b4" id="patch_38"/><path clip-path="url(#p09d6145b84)" d="M431.806 295.638h7.9V36.848h-7.9z" style="fill:#1f77b4" id="patch_39"/><path clip-path="url(#p09d6145b84)" d="M440.584 295.638h7.9V37.35h-7.9z" style="fill:#1f77b4" id="patch_40"/><path clip-path="url(#p09d6145b84)" d="M449.363 295.638h7.9v-257.8h-7.9z" style="fill:#1f77b4" id="patch_41"/><path clip-path="url(#p09d6145b84)" d="M458.141 295.638h7.9V39.228h-7.9z" style="fill:#1f77b4" id="patch_42"/><path clip-path="url(#p09d6145b84)" d="M466.92 295.638h7.9V40.648h-7.9z" style="fill:#1f77b4" id="patch_43"/><path clip-path="url(#p09d6145b84)" d="M475.698 295.638h7.9V43.81h-7.9z" style="fill:#1f77b4" id="patch_44"/><path clip-path="url(#p09d6145b84)" d="M484.477 295.638h7.9V46.413h-7.9z" style="fill:#1f77b4" id="patch_45"/><path clip-path="url(#p09d6145b84)" d="M493.255 295.638h7.9V51.893h-7.9z" style="fill:#1f77b4" id="patch_46"/><path clip-path="url(#p09d6145b84)" d="M502.034 295.638h7.9V56.392h-7.9z" style="fill:#1f77b4" id="patch_47"/><path clip-path="url(#p09d6145b84)" d="M510.812 295.638h7.9V64.858h-7.9z" style="fill:#1f77b4" id="patch_48"/><path clip-path="url(#p09d6145b84)" d="M519.59 295.638h7.901V71.297h-7.9z" style="fill:#1f77b4" id="patch_49"/><path clip-path="url(#p09d6145b84)" d="M528.37 295.638h7.9V83.059h-7.9z" style="fill:#1f77b4" id="patch_50"/><path clip-path="url(#p09d6145b84)" d="M537.148 295.638h7.9V91.826h-7.9z" style="fill:#1f77b4" id="patch_51"/><path clip-path="url(#p09d6145b84)" d="M545.926 295.638h7.901V106.08h-7.9z" style="fill:#1f77b4" id="patch_52"/><path clip-path="url(#p09d6145b84)" d="M554.705 295.638h7.9v-178.97h-7.9z" style="fill:#1f77b4" id="patch_53"/><path clip-path="url(#p09d6145b84)" d="M563.483 295.638h7.901V132.57h-7.9z" style="fill:#1f77b4" id="patch_54"/><path clip-path="url(#p09d6145b84)" d="M572.262 295.638h7.9V145.02h-7.9z" style="fill:#1f77b4" id="patch_55"/><path clip-path="url(#p09d6145b84)" d="M581.04 295.638h7.901V161.99h-7.9z" style="fill:#1f77b4" id="patch_56"/><path clip-path="url(#p09d6145b84)" d="M589.819 295.638h7.9V175.212h-7.9z" style="fill:#1f77b4" id="patch_57"/><path clip-path="url(#p09d6145b84)" d="M598.597 295.638h7.901V191.773h-7.9z" style="fill:#1f77b4" id="patch_58"/><path clip-path="url(#p09d6145b84)" d="M607.376 295.638h7.9v-90.33h-7.9z" style="fill:#1f77b4" id="patch_59"/><path clip-path="url(#p09d6145b84)" d="M616.154 295.638h7.901v-75.243h-7.9z" style="fill:#1f77b4" id="patch_60"/><path clip-path="url(#p09d6145b84)" d="M624.933 295.638h7.9v-62.98h-7.9z" style="fill:#1f77b4" id="patch_61"/><path clip-path="url(#p09d6145b84)" d="M633.711 295.638h7.901V245.47h-7.9z" style="fill:#1f77b4" id="patch_62"/><path clip-path="url(#p09d6145b84)" d="M642.49 295.638h7.9v-40.235h-7.9z" style="fill:#1f77b4" id="patch_63"/><path clip-path="url(#p09d6145b84)" d="M651.268 295.638h7.901v-30.37h-7.9z" style="fill:#1f77b4" id="patch_64"/><path clip-path="url(#p09d6145b84)" d="M660.047 295.638h7.9V272.84h-7.9z" style="fill:#1f77b4" id="patch_65"/><path clip-path="url(#p09d6145b84)" d="M668.826 295.638h7.9v-16.456h-7.9z" style="fill:#1f77b4" id="patch_66"/><path clip-path="url(#p09d6145b84)" d="M677.604 295.638h7.9v-11.706h-7.9z" style="fill:#1f77b4" id="patch_67"/><path clip-path="url(#p09d6145b84)" d="M686.383 295.638h7.9v-7.902h-7.9z" style="fill:#1f77b4" id="patch_68"/><path clip-path="url(#p09d6145b84)" d="M695.161 295.638h7.9v-5.175h-7.9z" style="fill:#1f77b4" id="patch_69"/><path clip-path="url(#p09d6145b84)" d="M703.94 295.638h7.9v-3.234h-7.9z" style="fill:#1f77b4" id="patch_70"/><path clip-path="url(#p09d6145b84)" d="M712.718 295.638h7.9v-1.971h-7.9z" style="fill:#1f77b4" id="patch_71"/><path clip-path="url(#p09d6145b84)" d="M721.497 295.638h7.9v-1.147h-7.9z" style="fill:#1f77b4" id="patch_72"/><path clip-path="url(#p09d6145b84)" d="M730.275 295.638h7.9v-.646h-7.9z" style="fill:#1f77b4" id="patch_73"/><path clip-path="url(#p09d6145b84)" d="M739.054 295.638h7.9v-.332h-7.9z" style="fill:#1f77b4" id="patch_74"/><path clip-path="url(#p09d6145b84)" d="M747.832 295.638h7.9v-.165h-7.9z" style="fill:#1f77b4" id="patch_75"/><path clip-path="url(#p09d6145b84)" d="M756.61 295.638h7.901v-.072h-7.9z" style="fill:#1f77b4" id="patch_76"/><path clip-path="url(#p09d6145b84)" d="M765.39 295.638h7.9v-.03h-7.9z" style="fill:#1f77b4" id="patch_77"/><path clip-path="url(#p09d6145b84)" d="M774.168 295.638h7.9v-.008h-7.9z" style="fill:#1f77b4" id="patch_78"/><path clip-path="url(#p09d6145b84)" d="M782.946 295.638h7.9v-.002h-7.9z" style="fill:#1f77b4" id="patch_79"/><path clip-path="url(#p09d6145b84)" d="M791.725 295.638h7.9-7.9z" style="fill:#1f77b4" id="patch_80"/><path clip-path="url(#p09d6145b84)" d="M800.503 295.638h7.9-7.9z" style="fill:#1f77b4" id="patch_81"/><path clip-path="url(#p09d6145b84)" d="M809.282 295.638h7.9-7.9z" style="fill:#1f77b4" id="patch_82"/><path clip-path="url(#p09d6145b84)" d="M818.06 295.638h7.9-7.9z" style="fill:#1f77b4" id="patch_83"/><path d="M80.27 295.638v-271.8" style="fill:none;stroke:#555;stroke-linecap:square;stroke-linejoin:miter;stroke-width:.8" id="patch_84"/><path d="M861.47 295.638v-271.8" style="fill:none;stroke:#555;stroke-linecap:square;stroke-linejoin:miter;stroke-width:.8" id="patch_85"/><path d="M80.27 295.638h781.2" style="fill:none;stroke:#555;stroke-linecap:square;stroke-linejoin:miter;stroke-width:.8" id="patch_86"/><path d="M80.27 23.838h781.2" style="fill:none;stroke:#555;stroke-linecap:square;stroke-linejoin:miter;stroke-width:.8" id="patch_87"/><g transform="matrix(.14 0 0 -.14 310.582 17.838)" id="text_28"><defs><path d="M2906 1791q0 625-258 968-257 344-723 344-462 0-720-344-258-343-258-968 0-622 258-966t720-344q466 0 723 344 258 344 258 966zm575-1357q0-893-397-1329-396-436-1215-436-303 0-572 45t-522 139v559q253-137 500-202 247-66 503-66 566 0 847 295t281 892v285q-178-310-456-463T1784 0Q1141 0 747 490 353 981 353 1791q0 812 394 1302 394 491 1037 491 388 0 666-153t456-462v531h575V434z" id="DVS-67" transform="scale(.01563)"/><path d="M313 2009h1684v-512H313v512z" id="DVS-2d" transform="scale(.01563)"/><path d="M3122 3366v-538q-244 135-489 202t-495 67q-560 0-870-355-309-354-309-995t309-996q310-354 870-354 250 0 495 67t489 202V134Q2881 22 2623-34q-257-57-548-57-791 0-1257 497-465 497-465 1341 0 856 470 1346 471 491 1290 491 265 0 518-55 253-54 491-163z" id="DVS-63" transform="scale(.01563)"/><path d="M750 794h659V0H750v794zm0 2515h659v-793H750v793z" id="DVS-3a" transform="scale(.01563)"/></defs><use xlink:href="#DVS-73"/><use x="52.1" xlink:href="#DVS-74"/><use x="91.309" xlink:href="#DVS-61"/><use x="152.588" xlink:href="#DVS-67"/><use x="216.064" xlink:href="#DVS-65"/><use x="277.588" xlink:href="#DVS-31"/><use x="341.211" xlink:href="#DVS-2d"/><use x="377.295" xlink:href="#DVS-6d"/><use x="474.707" xlink:href="#DVS-63"/><use x="529.688" xlink:href="#DVS-74"/><use x="568.896" xlink:href="#DVS-73"/><use x="620.996" xlink:href="#DVS-3a"/><use x="654.688" xlink:href="#DVS-20"/><use x="686.475" xlink:href="#DVS-6e"/><use x="749.854" xlink:href="#DVS-75"/><use x="813.232" xlink:href="#DVS-6d"/><use x="910.645" xlink:href="#DVS-62"/><use x="974.121" xlink:href="#DVS-65"/><use x="1035.645" xlink:href="#DVS-72"/><use x="1076.758" xlink:href="#DVS-20"/><use x="1108.545" xlink:href="#DVS-6f"/><use x="1169.727" xlink:href="#DVS-66"/><use x="1204.932" xlink:href="#DVS-20"/><use x="1236.719" xlink:href="#DVS-64"/><use x="1300.195" xlink:href="#DVS-61"/><use x="1361.475" xlink:href="#DVS-74"/><use x="1400.684" xlink:href="#DVS-61"/><use x="1461.963" xlink:href="#DVS-70"/><use x="1525.439" xlink:href="#DVS-6f"/><use x="1586.621" xlink:href="#DVS-69"/><use x="1614.404" xlink:href="#DVS-6e"/><use x="1677.783" xlink:href="#DVS-74"/><use x="1716.992" xlink:href="#DVS-73"/><use x="1769.092" xlink:href="#DVS-20"/><use x="1800.879" xlink:href="#DVS-70"/><use x="1864.355" xlink:href="#DVS-65"/><use x="1925.879" xlink:href="#DVS-72"/><use x="1966.992" xlink:href="#DVS-20"/><use x="1998.779" xlink:href="#DVS-64"/><use x="2062.256" xlink:href="#DVS-65"/><use x="2123.779" xlink:href="#DVS-70"/><use x="2187.256" xlink:href="#DVS-74"/><use x="2226.465" xlink:href="#DVS-68"/></g></g></g><defs><clipPath id="p09d6145b84"><path d="M80.27 23.838h781.2v271.8H80.27z"/></clipPath></defs></svg>